<svg width="250" height="50" xmlns="http://www.w3.org/2000/svg">
  <g fill="#000" fill-rule="evenodd">
    <path d="M14.496 18.32H9.168V32H5.616V18.32H.288V15.2h14.208v3.12zm1.848-3.12h10.824v3.12h-7.272v3.648h6.6v3.12h-6.6v3.792h7.392V32H16.344V15.2zm25.872 3.96c0 .416-.06.828-.18 1.236-.12.408-.308.788-.564 1.14a3.48 3.48 0 0 1-1.008.912c-.416.256-.92.44-1.512.552v.144a5.068 5.068 0 0 1 1.488.36c.464.192.868.46 1.212.804.344.344.616.76.816 1.248.2.488.3 1.06.3 1.716 0 .88-.204 1.632-.612 2.256a4.968 4.968 0 0 1-1.596 1.536c-.656.4-1.408.696-2.256.888a11.7 11.7 0 0 1-2.592.288h-1.14c-.472 0-.976-.012-1.512-.036-.536-.024-1.08-.06-1.632-.108a12.266 12.266 0 0 1-1.5-.216V15.32a39.78 39.78 0 0 1 1.14-.144c.424-.048.88-.088 1.368-.12a49.173 49.173 0 0 1 3.036-.096c.832 0 1.648.06 2.448.18s1.52.336 2.16.648c.64.312 1.156.74 1.548 1.284.392.544.588 1.24.588 2.088zm-6.552 10.2c.448 0 .876-.04 1.284-.12.408-.08.768-.212 1.08-.396.312-.184.56-.416.744-.696.184-.28.276-.628.276-1.044 0-.512-.112-.92-.336-1.224a2.061 2.061 0 0 0-.876-.684 4 4 0 0 0-1.2-.288c-.44-.04-.884-.06-1.332-.06h-1.968v4.368c.096.032.236.056.42.072.184.016.388.028.612.036l.684.024c.232.008.436.012.612.012zm-1.128-7.152c.24 0 .524-.004.852-.012.328-.008.604-.028.828-.06.672-.208 1.24-.492 1.704-.852.464-.36.696-.852.696-1.476 0-.416-.088-.752-.264-1.008a1.791 1.791 0 0 0-.708-.6 3.211 3.211 0 0 0-.996-.288 8.713 8.713 0 0 0-1.128-.072c-.464 0-.888.008-1.272.024s-.688.04-.912.072v4.272h1.2zm19.8 6.216h-5.664L47.304 32h-3.552l6.576-16.92h2.616l6.6 16.92h-3.768l-1.44-3.576zm-4.68-2.808h3.84L52.2 22.112l-.576-2.664h-.12l-.576 2.688-1.272 3.48zm15.936-.72h-.936V32h-3.552V15.2h3.552v7.392l.84-.36 5.04-7.032h4.056l-5.328 7.032-1.392.912 1.44.96L75.408 32h-4.392l-5.424-7.104zM88.92 18.32h-5.328V32H80.04V18.32h-5.328V15.2H88.92v3.12zm1.848-2.952c.384-.064.804-.124 1.26-.18.456-.056.916-.1 1.38-.132.464-.032.916-.056 1.356-.072.44-.016.844-.024 1.212-.024.848 0 1.684.072 2.508.216.824.144 1.56.392 2.208.744a4.282 4.282 0 0 1 1.572 1.452c.4.616.6 1.388.6 2.316 0 1.376-.34 2.508-1.02 3.396-.68.888-1.62 1.492-2.82 1.812l1.272.744 4.2 6.36h-4.128l-4.176-6.504-1.872-.288V32h-3.552V15.368zm5.448 2.712c-.368 0-.724.004-1.068.012-.344.008-.62.036-.828.084v4.632h1.512c1.008 0 1.804-.192 2.388-.576.584-.384.876-1.048.876-1.992 0-.704-.248-1.24-.744-1.608-.496-.368-1.208-.552-2.136-.552zm8.736 5.52c0-1.376.176-2.608.528-3.696.352-1.088.86-2.004 1.524-2.748a6.516 6.516 0 0 1 2.436-1.704c.96-.392 2.048-.588 3.264-.588 1.296 0 2.428.212 3.396.636a6.565 6.565 0 0 1 2.424 1.788c.648.768 1.136 1.688 1.464 2.76.328 1.072.492 2.256.492 3.552 0 1.376-.18 2.608-.54 3.696-.36 1.088-.876 2.004-1.548 2.748a6.624 6.624 0 0 1-2.448 1.704c-.96.392-2.04.588-3.24.588-1.296 0-2.428-.212-3.396-.636a6.565 6.565 0 0 1-2.424-1.788c-.648-.768-1.132-1.688-1.452-2.76-.32-1.072-.48-2.256-.48-3.552zm3.768 0c0 .832.08 1.592.24 2.28.16.688.4 1.28.72 1.776.32.496.732.88 1.236 1.152.504.272 1.1.408 1.788.408 1.264 0 2.248-.432 2.952-1.296.704-.864 1.056-2.304 1.056-4.32 0-.8-.072-1.544-.216-2.232-.144-.688-.38-1.284-.708-1.788a3.507 3.507 0 0 0-1.248-1.176c-.504-.28-1.116-.42-1.836-.42-1.248 0-2.224.448-2.928 1.344-.704.896-1.056 2.32-1.056 4.272zm13.68 0c0-1.376.176-2.608.528-3.696.352-1.088.86-2.004 1.524-2.748a6.516 6.516 0 0 1 2.436-1.704c.96-.392 2.048-.588 3.264-.588 1.296 0 2.428.212 3.396.636a6.565 6.565 0 0 1 2.424 1.788c.648.768 1.136 1.688 1.464 2.76.328 1.072.492 2.256.492 3.552 0 1.376-.18 2.608-.54 3.696-.36 1.088-.876 2.004-1.548 2.748a6.624 6.624 0 0 1-2.448 1.704c-.96.392-2.04.588-3.24.588-1.296 0-2.428-.212-3.396-.636a6.565 6.565 0 0 1-2.424-1.788c-.648-.768-1.132-1.688-1.452-2.76-.32-1.072-.48-2.256-.48-3.552zm3.768 0c0 .832.08 1.592.24 2.28.16.688.4 1.28.72 1.776.32.496.732.88 1.236 1.152.504.272 1.1.408 1.788.408 1.264 0 2.248-.432 2.952-1.296.704-.864 1.056-2.304 1.056-4.32 0-.8-.072-1.544-.216-2.232-.144-.688-.38-1.284-.708-1.788a3.507 3.507 0 0 0-1.248-1.176c-.504-.28-1.116-.42-1.836-.42-1.248 0-2.224.448-2.928 1.344-.704.896-1.056 2.32-1.056 4.272zm14.28-8.232c.72-.128 1.52-.228 2.4-.3.88-.072 1.76-.108 2.64-.108.896 0 1.8.068 2.712.204a7.138 7.138 0 0 1 2.46.816 4.992 4.992 0 0 1 1.788 1.704c.464.728.696 1.692.696 2.892 0 1.056-.2 1.956-.6 2.7a5.143 5.143 0 0 1-1.596 1.812 6.888 6.888 0 0 1-2.268 1.02c-.848.216-1.72.324-2.616.324h-.408a16.578 16.578 0 0 1-1.224-.048 5.781 5.781 0 0 1-.432-.048V32h-3.552V15.368zm5.28 2.712c-.336 0-.66.008-.972.024a4.087 4.087 0 0 0-.756.096v4.992c.064.016.168.032.312.048s.296.028.456.036l.444.024c.136.008.244.012.324.012.464 0 .928-.032 1.392-.096.464-.064.876-.2 1.236-.408a2.48 2.48 0 0 0 .876-.852c.224-.36.336-.844.336-1.452 0-.512-.104-.924-.312-1.236a2.157 2.157 0 0 0-.828-.732 3.75 3.75 0 0 0-1.176-.36 9.242 9.242 0 0 0-1.332-.096zm9.6-2.88h10.824v3.12h-7.272v3.648h6.6v3.12h-6.6v3.792h7.392V32h-10.944V15.2zm13.584.168c.384-.064.804-.124 1.26-.18.456-.056.916-.1 1.38-.132.464-.032.916-.056 1.356-.072.44-.016.844-.024 1.212-.024.848 0 1.684.072 2.508.216.824.144 1.56.392 2.208.744a4.282 4.282 0 0 1 1.572 1.452c.4.616.6 1.388.6 2.316 0 1.376-.34 2.508-1.02 3.396-.68.888-1.62 1.492-2.82 1.812l1.272.744 4.2 6.36h-4.128l-4.176-6.504-1.872-.288V32h-3.552V15.368zm5.448 2.712c-.368 0-.724.004-1.068.012-.344.008-.62.036-.828.084v4.632h1.512c1.008 0 1.804-.192 2.388-.576.584-.384.876-1.048.876-1.992 0-.704-.248-1.24-.744-1.608-.496-.368-1.208-.552-2.136-.552zm18.072 9.312c0-.496-.208-.888-.624-1.176-.416-.288-.932-.552-1.548-.792s-1.284-.48-2.004-.72a8.733 8.733 0 0 1-2.004-.96 5.463 5.463 0 0 1-1.548-1.512c-.416-.608-.624-1.4-.624-2.376 0-.832.148-1.564.444-2.196a4.125 4.125 0 0 1 1.248-1.56c.536-.408 1.184-.716 1.944-.924a9.485 9.485 0 0 1 2.508-.312c1.056 0 2.06.092 3.012.276.952.184 1.732.444 2.34.78l-1.128 2.976a5.81 5.81 0 0 0-.732-.348 6.723 6.723 0 0 0-1.02-.312 12.92 12.92 0 0 0-1.224-.216 10.258 10.258 0 0 0-1.32-.084c-.8 0-1.42.14-1.86.42-.44.28-.66.668-.66 1.164 0 .496.208.892.624 1.188.416.296.932.568 1.548.816s1.284.496 2.004.744 1.388.568 2.004.96a5.446 5.446 0 0 1 1.548 1.476c.416.592.624 1.352.624 2.28 0 .928-.16 1.728-.48 2.4a4.452 4.452 0 0 1-1.356 1.668c-.584.44-1.284.764-2.1.972-.816.208-1.712.312-2.688.312-.656 0-1.276-.036-1.86-.108a19.616 19.616 0 0 1-1.62-.264 13.36 13.36 0 0 1-1.308-.336 6.48 6.48 0 0 1-.9-.348l1.176-3c.176.096.42.2.732.312.312.112.66.22 1.044.324.384.104.796.188 1.236.252.44.064.884.096 1.332.096 1.056 0 1.86-.152 2.412-.456.552-.304.828-.776.828-1.416z"/>
    <g fill-rule="nonzero">
      <path d="M244 14.13s-1.205-7.092-3.616-10.611C237.973 0 228 0 228 0s-9.973-.055-12.384 3.519C213.206 7.038 212 14.13 212 14.13s1.644 1.54 16 1.869c14.356-.33 16-1.87 16-1.87zM247.54 27.833c-.448-.374-.951-1.015-.951-1.015.838-.214.838-.588.838-.588V23.4h.336c.447 0 .391-.374.391-.374v-1.71c0-.587-.503-.48-.503-.48h-.28c0-.802-.055-1.55-.111-2.137-.056-.801-1.622-.694-1.622-.694-2.685 1.656-16.666 1.709-16.666 1.709s-13.981-.053-16.666-1.71c0 0-1.566-.106-1.622.695a22.655 22.655 0 0 0-.111 2.137h-.224s-.503-.107-.503.48v1.71s-.056.373.391.373h.336v2.831s-.056.374.838.588c0 0-.503.64-.95 1.015-1.342.908-2.461 2.777-2.461 4.54 0 1.709 1.174 2.99 1.174 2.99a6.5 6.5 0 0 0 .168.535c.392-1.068.336-.427.28.748.112.213.168.427.28.587.335-1.121.39-.587.335.641l.336.481c.391-1.015.559-.534.335.48.168.214.28.375.448.642l-.224 2.19c0 2.777 1.734 5.608 6.543 7.638a8.241 8.241 0 0 0 3.356.694c1.342 0 2.796-.16 3.411-.64.615-.482 1.51-4.808 1.957-5.556 1.007-1.549 2.517-1.602 2.517-1.602s1.51.053 2.573 1.602c.503.748 1.286 4.86 1.957 5.555.727.694 2.07.641 3.412.641 1.062 0 2.18-.214 3.355-.694 4.754-2.03 6.543-4.86 6.543-7.638l-.112-2.19c.224-.32.448-.588.616-.801-.224-1.015-.056-1.496.335-.535.112-.16.224-.373.336-.534-.168-1.121-.056-1.656.335-.64.112-.16.168-.375.28-.588v-.054c-.168-1.068-.224-1.709.224-.747 0-.107.056-.16.056-.267 0 0 1.174-1.282 1.174-2.992 0-1.709-1.119-3.578-2.46-4.486zm-30.927.374c-2.07-.428-2.965-2.457-3.244-5.342-.224-2.457 1.006-1.87 1.006-1.87s4.53.749 11.074.962c0 0 1.79-.213 1.79.695 0 .961-1.902 2.03-3.188 2.724-1.287.747-6.04 3.098-7.438 2.83zm6.207 16.878c0 1.71-1.454 3.045-3.188 3.045-1.79 0-3.187-1.39-3.187-3.045 0-1.71 1.454-3.044 3.187-3.044 1.734-.054 3.188 1.335 3.188 3.044zm18.567-.053c0 1.709-1.454 3.098-3.243 3.098-1.79 0-3.244-1.39-3.244-3.098 0-1.71 1.454-3.098 3.244-3.098 1.79 0 3.243 1.388 3.243 3.098zm-7.885-9.882c-2.013-.748-4.53-.854-4.53-.854s-2.517.053-4.53.854c-2.013.748-10.346 2.564-10.346 2.564 3.188-1.282 8.892-4.22 10.793-5.288 1.902-1.015 4.083-.961 4.083-.961s2.181-.107 4.083.961c1.901 1.015 7.605 3.953 10.793 5.288 0 0-8.333-1.816-10.346-2.564zm11.52-12.285c-.279 2.885-1.23 4.914-3.243 5.342-1.342.267-6.152-2.084-7.438-2.778-1.286-.694-3.188-1.762-3.188-2.724 0-.961 1.79-.694 1.79-.694 6.543-.267 11.073-.962 11.073-.962s1.23-.64 1.007 1.816z"/>
    </g>
  </g>
</svg>
